<svg xmlns="http://www.w3.org/2000/svg" width="1452" height="176" viewBox="0 0 1452 176">
    <g fill="none" fill-rule="evenodd">
        <g>
            <g>
                <path fill="#ffffff" d="M0 0H539V176H0z"/>
                <path fill="#262262" d="M108.72 97.702l-8.486-22.425-8.486 22.425h16.973zM356.299 40v50.423c0 11.454 5.918 16.325 14.203 16.325 8.286 0 14.201-4.478 14.201-15.668V40H416v50.16c0 31.464-18.278 43.84-45.763 43.84C342.754 134 325 121.36 325 90.818V40h31.298zm99.163 18c11.837 0 23.543 3.056 32.224 8.37l-9.47 17.938c-7.627-4.252-16.836-6.777-22.886-6.777-2.894 0-4.209.798-4.209 2.26v.265c0 1.46 1.578 2.392 8.813 4.252C478.084 88.826 489 93.874 489 108.756v.266c0 15.81-11.706 24.978-31.171 24.978-13.942 0-26.57-3.588-36.829-10.497l10.127-17.14c8.682 5.448 18.415 8.105 26.57 8.105 2.893 0 4.34-.662 4.34-2.392v-.265c0-1.462-1.314-2.391-8.549-4.252-18.153-4.517-29.332-9.433-29.332-24.446v-.267C424.156 66.902 436.784 58 455.46 58zM189 36v97h-30V36h30zm43 0v97h-30V36h30zm-116.118 3L155 132h-33.681l-4.907-12.4H83.924L79.151 132H46l39.117-93h30.765zm192.892 19c3.007 0 5.462.586 7.368 1.757 1.905 1.173 2.858 2.737 2.858 4.69 0 1.302-.46 2.442-1.379 3.418-.921.977-2.094 1.465-3.52 1.465-2.048 0-3.81-1.446-5.288-4.337-1.088-2.16-2.19-3.242-3.305-3.242-1.295 0-2.293 1.732-2.994 5.196l-2.566 13.128h5.794l-1.322 4.337h-5.443l-3.888 17.504c-2.257 10.106-5.257 17.646-9.002 22.622-3.746 4.974-8.833 7.462-15.261 7.462-3.058 0-5.294-.586-6.708-1.759-1.411-1.17-2.118-2.591-2.118-4.257 0-1.511.55-2.78 1.652-3.81 1.102-1.029 2.378-1.543 3.83-1.543 3.008 0 4.744 1.615 5.21 4.846.233 1.64.946 2.46 2.138 2.46 1.22 0 2.327-1.094 3.326-3.282.996-2.187 2.209-6.603 3.634-13.245l1.206-5.665c.362-1.355.622-2.423.778-3.204l3.926-18.13h-5.054l1.321-4.336h4.627c2.436-8.908 5.282-14.814 8.535-17.718 3.253-2.905 7.135-4.357 11.645-4.357zm-47.728 21c5.832 0 10.116 1.374 12.85 4.124 2.736 2.751 4.104 6.079 4.104 9.984 0 5.372-2.1 10.03-6.3 13.974-4.2 3.945-9.566 5.918-16.097 5.918-4.745 0-8.697-1.19-11.86-3.566-3.162-2.378-4.743-6.02-4.743-10.929 0-2.698.797-5.595 2.39-8.693 1.595-3.096 4.097-5.671 7.506-7.727 3.408-2.057 7.458-3.085 12.15-3.085zm.661 3.7c-3.423 0-6.164 2.52-8.223 7.556-2.062 5.036-3.092 9.085-3.092 12.143 0 2.287.435 4.002 1.303 5.145.867 1.144 2.17 1.717 3.908 1.717 3.214 0 5.838-2.404 7.873-7.21 2.036-4.804 3.053-8.865 3.053-12.18 0-2.52-.486-4.344-1.458-5.475-.972-1.13-2.094-1.695-3.364-1.695z"/>
            </g>
            <path fill="#ffffff" fill-rule="nonzero" d="M600.656 135V98.46h28.854L657.608 135h8.316l-29.106-37.674c3.696-.504 7.119-1.407 10.269-2.709 3.15-1.302 5.88-3.003 8.19-5.103 2.31-2.1 4.116-4.599 5.418-7.497 1.302-2.898 1.953-6.195 1.953-9.891v-.252c0-3.192-.588-6.195-1.764-9.009-1.176-2.814-2.814-5.271-4.914-7.371-2.688-2.688-6.132-4.809-10.332-6.363-4.2-1.554-9.03-2.331-14.49-2.331h-37.044V135h6.552zm29.736-42.462h-29.736v-39.69h30.114c8.064 0 14.301 1.722 18.711 5.166 4.41 3.444 6.615 8.148 6.615 14.112v.252c0 3.192-.651 6.027-1.953 8.505-1.302 2.478-3.087 4.578-5.355 6.3-2.268 1.722-4.977 3.045-8.127 3.969-3.15.924-6.573 1.386-10.269 1.386zm80.514 43.974c6.132 0 11.277-1.134 15.435-3.402 4.158-2.268 7.875-5.166 11.151-8.694l-4.284-3.78c-2.688 2.856-5.775 5.25-9.261 7.182-3.486 1.932-7.749 2.898-12.789 2.898-3.192 0-6.237-.567-9.135-1.701-2.898-1.134-5.481-2.793-7.749-4.977s-4.158-4.83-5.67-7.938c-1.512-3.108-2.394-6.678-2.646-10.71h53.298c.084-.504.126-.903.126-1.197v-1.323c0-4.788-.693-9.219-2.079-13.293-1.386-4.074-3.36-7.623-5.922-10.647s-5.649-5.397-9.261-7.119c-3.612-1.722-7.686-2.583-12.222-2.583-4.368 0-8.4.882-12.096 2.646-3.696 1.764-6.909 4.158-9.639 7.182-2.73 3.024-4.872 6.573-6.426 10.647-1.554 4.074-2.331 8.421-2.331 13.041v.252c0 5.04.84 9.618 2.52 13.734 1.68 4.116 3.969 7.644 6.867 10.584 2.898 2.94 6.258 5.208 10.08 6.804s7.833 2.394 12.033 2.394zm21.798-36.666h-46.746c.252-3.528 1.05-6.825 2.394-9.891s3.045-5.712 5.103-7.938 4.473-3.969 7.245-5.229c2.772-1.26 5.754-1.89 8.946-1.89 3.696 0 6.93.693 9.702 2.079 2.772 1.386 5.103 3.234 6.993 5.544 1.89 2.31 3.36 4.956 4.41 7.938 1.05 2.982 1.701 6.111 1.953 9.387zm45.486 36.414c3.108 0 6.006-.441 8.694-1.323 2.688-.882 5.04-2.142 7.056-3.78s3.591-3.612 4.725-5.922c1.134-2.31 1.701-4.893 1.701-7.749v-.252c0-2.856-.609-5.25-1.827-7.182-1.218-1.932-2.835-3.591-4.851-4.977-2.016-1.386-4.284-2.52-6.804-3.402-2.52-.882-5.082-1.701-7.686-2.457-2.268-.672-4.494-1.365-6.678-2.079-2.184-.714-4.095-1.533-5.733-2.457-1.638-.924-2.961-2.037-3.969-3.339s-1.512-2.835-1.512-4.599v-.252c0-3.192 1.323-5.859 3.969-8.001 2.646-2.142 6.195-3.213 10.647-3.213 3.444 0 6.867.588 10.269 1.764 3.402 1.176 6.573 2.73 9.513 4.662l3.276-5.166c-3.192-2.184-6.825-3.906-10.899-5.166-4.074-1.26-8.043-1.89-11.907-1.89-3.108 0-5.964.441-8.568 1.323-2.604.882-4.83 2.121-6.678 3.717-1.848 1.596-3.297 3.465-4.347 5.607-1.05 2.142-1.575 4.515-1.575 7.119v.252c0 2.856.651 5.25 1.953 7.182 1.302 1.932 3.003 3.549 5.103 4.851 2.1 1.302 4.473 2.373 7.119 3.213 2.646.84 5.271 1.638 7.875 2.394 2.268.672 4.41 1.344 6.426 2.016 2.016.672 3.822 1.512 5.418 2.52s2.856 2.184 3.78 3.528c.924 1.344 1.386 2.94 1.386 4.788v.252c0 3.78-1.491 6.762-4.473 8.946-2.982 2.184-6.657 3.276-11.025 3.276-4.116 0-8.106-.735-11.97-2.205-3.864-1.47-7.56-3.549-11.088-6.237l-3.654 4.914c3.444 2.772 7.518 5.019 12.222 6.741 4.704 1.722 9.408 2.583 14.112 2.583zm68.922.252c6.132 0 11.277-1.134 15.435-3.402 4.158-2.268 7.875-5.166 11.151-8.694l-4.284-3.78c-2.688 2.856-5.775 5.25-9.261 7.182-3.486 1.932-7.749 2.898-12.789 2.898-3.192 0-6.237-.567-9.135-1.701-2.898-1.134-5.481-2.793-7.749-4.977s-4.158-4.83-5.67-7.938c-1.512-3.108-2.394-6.678-2.646-10.71h53.298c.084-.504.126-.903.126-1.197v-1.323c0-4.788-.693-9.219-2.079-13.293-1.386-4.074-3.36-7.623-5.922-10.647s-5.649-5.397-9.261-7.119c-3.612-1.722-7.686-2.583-12.222-2.583-4.368 0-8.4.882-12.096 2.646-3.696 1.764-6.909 4.158-9.639 7.182-2.73 3.024-4.872 6.573-6.426 10.647-1.554 4.074-2.331 8.421-2.331 13.041v.252c0 5.04.84 9.618 2.52 13.734 1.68 4.116 3.969 7.644 6.867 10.584 2.898 2.94 6.258 5.208 10.08 6.804s7.833 2.394 12.033 2.394zm21.798-36.666h-46.746c.252-3.528 1.05-6.825 2.394-9.891s3.045-5.712 5.103-7.938 4.473-3.969 7.245-5.229c2.772-1.26 5.754-1.89 8.946-1.89 3.696 0 6.93.693 9.702 2.079 2.772 1.386 5.103 3.234 6.993 5.544 1.89 2.31 3.36 4.956 4.41 7.938 1.05 2.982 1.701 6.111 1.953 9.387zm44.226 36.666c3.024 0 5.817-.357 8.379-1.071 2.562-.714 4.851-1.638 6.867-2.772s3.801-2.436 5.355-3.906c1.554-1.47 2.877-2.961 3.969-4.473V135h6.048V94.932c0-7.728-2.184-13.776-6.552-18.144-4.704-4.704-11.466-7.056-20.286-7.056-4.452 0-8.484.504-12.096 1.512s-7.182 2.352-10.71 4.032l2.268 5.418c2.94-1.512 6.048-2.751 9.324-3.717 3.276-.966 6.888-1.449 10.836-1.449 6.636 0 11.823 1.638 15.561 4.914 3.738 3.276 5.607 8.19 5.607 14.742v2.772c-3.108-.84-6.3-1.512-9.576-2.016-3.276-.504-7.182-.756-11.718-.756-4.2 0-8.022.462-11.466 1.386-3.444.924-6.384 2.268-8.82 4.032-2.436 1.764-4.347 3.948-5.733 6.552-1.386 2.604-2.079 5.586-2.079 8.946v.252c0 3.36.735 6.3 2.205 8.82 1.47 2.52 3.381 4.62 5.733 6.3 2.352 1.68 4.998 2.94 7.938 3.78 2.94.84 5.922 1.26 8.946 1.26zm.378-5.796c-2.436 0-4.788-.336-7.056-1.008-2.268-.672-4.263-1.638-5.985-2.898-1.722-1.26-3.087-2.793-4.095-4.599-1.008-1.806-1.512-3.885-1.512-6.237v-.252c0-4.536 1.827-8.169 5.481-10.899 3.654-2.73 8.883-4.095 15.687-4.095 4.62 0 8.736.315 12.348.945 3.612.63 6.762 1.281 9.45 1.953v7.308c0 2.94-.651 5.628-1.953 8.064s-3.066 4.515-5.292 6.237c-2.226 1.722-4.809 3.066-7.749 4.032-2.94.966-6.048 1.449-9.324 1.449zm58.59 4.284v-26.334c0-5.208.756-9.807 2.268-13.797 1.512-3.99 3.549-7.35 6.111-10.08 2.562-2.73 5.523-4.788 8.883-6.174 3.36-1.386 6.888-2.079 10.584-2.079h.63v-6.804c-3.192-.084-6.237.315-9.135 1.197-2.898.882-5.565 2.184-8.001 3.906-2.436 1.722-4.62 3.801-6.552 6.237-1.932 2.436-3.528 5.082-4.788 7.938V70.74h-6.174V135h6.174zm72.576 1.512c5.88 0 10.899-1.197 15.057-3.591 4.158-2.394 7.875-5.439 11.151-9.135l-4.284-3.78c-2.688 3.024-5.817 5.565-9.387 7.623-3.57 2.058-7.623 3.087-12.159 3.087-3.696 0-7.14-.714-10.332-2.142-3.192-1.428-5.985-3.402-8.379-5.922-2.394-2.52-4.284-5.481-5.67-8.883-1.386-3.402-2.079-7.035-2.079-10.899v-.252c0-3.864.672-7.476 2.016-10.836 1.344-3.36 3.171-6.279 5.481-8.757 2.31-2.478 5.04-4.431 8.19-5.859 3.15-1.428 6.573-2.142 10.269-2.142 4.788 0 8.862 1.05 12.222 3.15 3.36 2.1 6.426 4.578 9.198 7.434l4.41-4.536c-1.512-1.596-3.129-3.108-4.851-4.536-1.722-1.428-3.633-2.688-5.733-3.78-2.1-1.092-4.389-1.953-6.867-2.583-2.478-.63-5.229-.945-8.253-.945-4.62 0-8.925.903-12.915 2.709-3.99 1.806-7.455 4.263-10.395 7.371-2.94 3.108-5.25 6.678-6.93 10.71-1.68 4.032-2.52 8.316-2.52 12.852v.252c0 4.536.84 8.82 2.52 12.852 1.68 4.032 3.99 7.56 6.93 10.584 2.94 3.024 6.405 5.439 10.395 7.245 3.99 1.806 8.295 2.709 12.915 2.709zm49.77-1.512V97.83c0-3.36.567-6.447 1.701-9.261 1.134-2.814 2.709-5.229 4.725-7.245 2.016-2.016 4.368-3.591 7.056-4.725 2.688-1.134 5.628-1.701 8.82-1.701 6.552 0 11.592 1.995 15.12 5.985 3.528 3.99 5.292 9.303 5.292 15.939V135h6.174V95.688c0-3.864-.567-7.413-1.701-10.647-1.134-3.234-2.814-6.027-5.04-8.379-2.226-2.352-4.935-4.179-8.127-5.481-3.192-1.302-6.804-1.953-10.836-1.953-5.88 0-10.668 1.302-14.364 3.906-3.696 2.604-6.636 5.796-8.82 9.576V43.02h-6.174V135h6.174zm116.802 0V93.672h56.448V135h6.552V46.8h-6.552v40.824h-56.448V46.8h-6.552V135h6.552zm112.266 1.512c5.88 0 10.668-1.302 14.364-3.906 3.696-2.604 6.636-5.796 8.82-9.576V135h6.174V70.74h-6.174v37.17c0 3.36-.567 6.447-1.701 9.261-1.134 2.814-2.709 5.229-4.725 7.245-2.016 2.016-4.389 3.591-7.119 4.725-2.73 1.134-5.649 1.701-8.757 1.701-6.552 0-11.592-1.995-15.12-5.985-3.528-3.99-5.292-9.303-5.292-15.939V70.74h-6.174v39.312c0 3.864.567 7.413 1.701 10.647 1.134 3.234 2.814 6.027 5.04 8.379 2.226 2.352 4.935 4.179 8.127 5.481 3.192 1.302 6.804 1.953 10.836 1.953zm85.428 0c3.864 0 7.665-.777 11.403-2.331 3.738-1.554 7.077-3.78 10.017-6.678 2.94-2.898 5.313-6.426 7.119-10.584 1.806-4.158 2.709-8.841 2.709-14.049v-.252c0-5.208-.903-9.891-2.709-14.049-1.806-4.158-4.179-7.665-7.119-10.521-2.94-2.856-6.279-5.04-10.017-6.552-3.738-1.512-7.539-2.268-11.403-2.268-3.192 0-6.111.441-8.757 1.323-2.646.882-5.04 2.037-7.182 3.465-2.142 1.428-4.095 3.108-5.859 5.04-1.764 1.932-3.318 3.948-4.662 6.048V43.02h-6.174V135h6.174v-13.86c1.344 2.016 2.877 3.948 4.599 5.796 1.722 1.848 3.654 3.486 5.796 4.914 2.142 1.428 4.557 2.562 7.245 3.402 2.688.84 5.628 1.26 8.82 1.26zm-.63-5.922c-3.36 0-6.615-.672-9.765-2.016-3.15-1.344-5.943-3.213-8.379-5.607s-4.389-5.292-5.859-8.694c-1.47-3.402-2.205-7.161-2.205-11.277v-.252c0-4.116.735-7.854 2.205-11.214 1.47-3.36 3.423-6.258 5.859-8.694 2.436-2.436 5.229-4.326 8.379-5.67 3.15-1.344 6.405-2.016 9.765-2.016 3.36 0 6.573.651 9.639 1.953 3.066 1.302 5.754 3.15 8.064 5.544 2.31 2.394 4.137 5.313 5.481 8.757 1.344 3.444 2.016 7.266 2.016 11.466v.252c0 4.284-.651 8.127-1.953 11.529-1.302 3.402-3.087 6.279-5.355 8.631-2.268 2.352-4.935 4.158-8.001 5.418-3.066 1.26-6.363 1.89-9.891 1.89z"/>
        </g>
    </g>
</svg>
