<svg xmlns="http://www.w3.org/2000/svg" width="182" height="29" viewBox="0 0 182 29">
    <g fill="none" fill-rule="evenodd">
        <g>
            <g>
                <g>
                    <g>
                        <path fill="#335883" d="M32.518 27.878l7.645-13.94L32.543.022h1.908c1.044 0 2.313.757 2.817 1.678l6.7 12.238-6.722 12.263c-.507.923-1.775 1.677-2.818 1.677h-1.91" transform="translate(-413 -80) translate(-11 1) translate(147.668 71) translate(277 8)"/>
                        <path fill="#5D5E5F" d="M175.828 17.661h1.252V14.32c0-.833.54-1.491 1.373-1.491.737 0 1.087.383 1.11 1.272v3.561h1.253v-3.89c0-1.271-.78-1.93-2.011-1.93-.747 0-1.395.385-1.703.9h-.022V9.835h-1.252v7.825zm-4.01-4.734h.945v3.343c.022.942.263 1.447 1.57 1.447.276 0 .538-.045.813-.066v-.965c-.175.044-.35.044-.527.044-.56 0-.604-.263-.604-.779v-3.024h1.13v-.932h-1.13v-1.698h-1.252v1.698h-.945v.932zm-1.823 4.735h1.252V9.836h-1.252v7.826zm-1.165-4.176c0-1.194-1.165-1.644-2.274-1.644-1.252 0-2.493.427-2.582 1.885h1.253c.054-.614.55-.899 1.252-.899.506 0 1.176.121 1.176.768 0 .734-.803.635-1.703.8-1.054.12-2.186.35-2.186 1.764 0 1.107.922 1.655 1.944 1.655.67 0 1.472-.209 1.967-.69.098.514.46.69.966.69.209 0 .605-.077.791-.143v-.865c-.132.022-.23.022-.308.022-.23 0-.296-.121-.296-.428v-2.915zm-1.253 2.269c0 .788-.857 1.074-1.406 1.074-.439 0-1.153-.165-1.153-.723 0-.658.483-.856 1.021-.943.55-.099 1.154-.088 1.538-.34v.932zm-4.24-.603c.21-1.699-.89-3.31-2.68-3.31-1.692 0-2.746 1.38-2.746 2.992 0 1.742 1 2.981 2.779 2.981 1.24 0 2.296-.69 2.57-1.93h-1.186c-.22.626-.659.943-1.384.943-1.044 0-1.527-.788-1.527-1.676h4.174zm-4.174-.822c.033-.844.626-1.502 1.494-1.502.845 0 1.384.713 1.428 1.502h-2.922zm-8.546 3.331h1.373v-3.528h3.569v3.528h1.372V9.836h-1.372v3.113h-3.57V9.836h-1.372v7.825zm-6.779-4.734h.934v4.734h1.252v-4.734h1.066v-.932h-1.066v-.58c0-.471.274-.592.616-.592.252 0 .417.021.582.066v-.976c-.198-.055-.484-.077-.88-.077-.812 0-1.57.242-1.57 1.688v.471h-.934v.932zm-5.998 1.896c0 1.743 1.044 2.992 2.867 2.992s2.867-1.249 2.867-2.992c0-1.732-1.044-2.981-2.867-2.981s-2.867 1.25-2.867 2.981zm4.482 0c0 .986-.494 2.005-1.615 2.005-1.12 0-1.615-1.019-1.615-2.005 0-.975.494-1.995 1.615-1.995 1.12 0 1.615 1.02 1.615 1.995zm-12.842 1.02c.022 1.336 1.087 1.972 2.516 1.972 1.175 0 2.537-.493 2.537-1.84 0-1.12-.923-1.448-1.835-1.656-.922-.208-1.845-.296-1.845-.91 0-.493.67-.58 1.033-.58.55 0 1.043.164 1.153.755h1.307c-.154-1.26-1.208-1.742-2.372-1.742-1.033 0-2.373.384-2.373 1.622 0 1.15.9 1.48 1.823 1.677.912.208 1.824.284 1.857.942.033.647-.791.745-1.263.745-.67 0-1.22-.262-1.286-.986h-1.252zm-.43-.691c.21-1.699-.888-3.31-2.68-3.31-1.691 0-2.745 1.38-2.745 2.992 0 1.742 1 2.981 2.779 2.981 1.24 0 2.295-.69 2.57-1.93h-1.186c-.22.626-.66.943-1.384.943-1.044 0-1.527-.788-1.527-1.676h4.174zm-4.173-.822c.033-.844.626-1.502 1.494-1.502.845 0 1.384.713 1.427 1.502h-2.921zm-4.987-1.403h.944v3.343c.022.942.264 1.447 1.571 1.447.275 0 .538-.045.813-.066v-.965c-.176.044-.351.044-.527.044-.56 0-.604-.263-.604-.779v-3.024h1.131v-.932h-1.131v-1.698h-1.253v1.698h-.944v.932zm-.528-.932h-1.252v3.288c0 .877-.352 1.545-1.395 1.545-.682 0-1.088-.36-1.088-1.358v-3.475h-1.252v3.595c0 1.48.637 2.225 2.12 2.225.626 0 1.307-.373 1.615-.943h.022v.79h1.23v-5.667zm-8.997.932h.945v3.343c.022.942.264 1.447 1.57 1.447.275 0 .539-.045.813-.066v-.965c-.175.044-.35.044-.527.044-.56 0-.604-.263-.604-.779v-3.024h1.131v-.932h-1.131v-1.698h-1.252v1.698h-.945v.932zm-1.824-1.907h1.253V9.836h-1.253v1.184zm0 6.642h1.253v-5.667h-1.253v5.667zm-4.042-4.735h.944v3.343c.022.942.264 1.447 1.572 1.447.274 0 .538-.045.812-.066v-.965c-.175.044-.351.044-.527.044-.56 0-.604-.263-.604-.779v-3.024h1.131v-.932h-1.131v-1.698h-1.253v1.698h-.944v.932zm-5.219 2.915c.022 1.337 1.088 1.973 2.516 1.973 1.175 0 2.537-.493 2.537-1.84 0-1.12-.923-1.448-1.834-1.656-.923-.208-1.846-.296-1.846-.91 0-.493.67-.58 1.033-.58.55 0 1.043.164 1.154.755h1.307c-.154-1.26-1.208-1.742-2.373-1.742-1.033 0-2.372.384-2.372 1.622 0 1.15.9 1.48 1.823 1.677.911.208 1.823.284 1.856.942.033.647-.79.745-1.263.745-.67 0-1.22-.262-1.285-.986H99.28zm-5.778 1.82h1.252v-3.343c0-.833.538-1.491 1.374-1.491.736 0 1.087.383 1.109 1.272v3.561h1.252v-3.89c0-1.271-.78-1.93-2.01-1.93-.747 0-1.395.385-1.769 1.01l-.021-.023v-.833h-1.187v5.666zm-2.659 0h1.373V9.836h-1.373v7.826zm-5.405 0h1.253V9.836h-1.253v7.826zm-1.164-4.176c0-1.194-1.165-1.644-2.274-1.644-1.252 0-2.494.427-2.582 1.885h1.253c.054-.614.55-.899 1.252-.899.505 0 1.175.121 1.175.768 0 .734-.802.635-1.702.8-1.055.12-2.186.35-2.186 1.764 0 1.107.923 1.655 1.944 1.655.67 0 1.472-.209 1.966-.69.1.514.462.69.967.69.209 0 .604-.077.79-.143v-.865c-.131.022-.23.022-.306.022-.231 0-.297-.121-.297-.428v-2.915zm-1.253 2.269c0 .788-.856 1.074-1.406 1.074-.439 0-1.153-.165-1.153-.723 0-.658.484-.856 1.022-.943.549-.099 1.153-.088 1.537-.34v.932zm-9.59 1.906h1.252V14.32c0-.833.539-1.491 1.374-1.491.736 0 1.087.383 1.11 1.272v3.561h1.251v-3.89c0-1.271-.78-1.93-2.01-1.93-.747 0-1.395.385-1.768 1.01l-.022-.023v-.833h-1.186v5.666zm-6.558-2.838c0 1.743 1.043 2.992 2.867 2.992 1.823 0 2.867-1.249 2.867-2.992 0-1.732-1.044-2.981-2.867-2.981-1.824 0-2.867 1.25-2.867 2.981zm4.482 0c0 .986-.495 2.005-1.615 2.005s-1.615-1.019-1.615-2.005c0-.975.494-1.995 1.615-1.995 1.12 0 1.615 1.02 1.615 1.995zm-6.614-3.803h1.253V9.836H64.74v1.184zm0 6.642h1.253v-5.667H64.74v5.667zM60.7 12.927h.945v3.343c.022.942.264 1.447 1.57 1.447.275 0 .539-.045.813-.066v-.965c-.175.044-.35.044-.527.044-.56 0-.604-.263-.604-.779v-3.024h1.131v-.932h-1.13v-1.698h-1.253v1.698h-.945v.932zm-.56.56c0-1.195-1.165-1.645-2.274-1.645-1.253 0-2.494.427-2.582 1.885h1.252c.055-.614.55-.899 1.252-.899.506 0 1.176.121 1.176.768 0 .734-.802.635-1.703.8-1.054.12-2.186.35-2.186 1.764 0 1.107.923 1.655 1.945 1.655.67 0 1.472-.209 1.966-.69.099.514.461.69.967.69.208 0 .604-.077.79-.143v-.865c-.132.022-.23.022-.307.022-.231 0-.297-.121-.297-.428v-2.915zm-1.253 2.268c0 .788-.857 1.074-1.406 1.074-.44 0-1.153-.165-1.153-.723 0-.658.483-.856 1.021-.943.55-.099 1.154-.088 1.538-.34v.932zM47.791 9.836h1.45l3.581 5.765h.022V9.836h1.307v7.825h-1.45l-3.57-5.753h-.033v5.753h-1.307V9.836zm-9.533 4.102L30.63.023H2.54C1.137.023 0 1.17 0 2.587v22.726c0 1.416 1.137 2.565 2.539 2.565h28.066l7.653-13.94zm-23.983 6.269h-2.28L6.382 11.05H6.33v9.157H4.275V7.754h2.28l5.63 9.174h.034V7.754h2.056v12.453zm2.127 0h2.159V7.755H16.4v12.452zM30.65 7.754v12.453h-2.158V14.59h-5.613v5.616h-2.16V7.754h2.16v4.954h5.613V7.754h2.158zM137.708 23.39h.802l-.111.54.014.016c.312-.4.787-.66 1.314-.66.468 0 .883.178.973.682.341-.393.779-.682 1.299-.682.735 0 1.09.4 1.09 1.015 0 .14-.029.34-.059.474l-.49 2.444h-.846l.476-2.266c.014-.09.066-.267.074-.452.007-.274-.09-.548-.527-.548-.654 0-1.01.6-1.099 1.03l-.468 2.236h-.846l.438-2.104c.037-.192.112-.459.112-.688 0-.26-.112-.474-.468-.474-.326 0-.55.14-.72.304-.17.163-.379.444-.446.748l-.46 2.214h-.846l.794-3.83zm-3.42 3.266c.824 0 1.099-.593 1.21-1.318l-.015-.015c-.119.119-.342.156-.527.178-.475.037-1.344.03-1.344.666 0 .37.364.489.676.489zm1.87-.548c-.03.14-.074.274-.074.378 0 .103.045.17.179.17.096 0 .2-.037.296-.045l-.134.608c-.214.052-.437.104-.66.104-.29 0-.497-.193-.512-.49-.334.334-.824.49-1.292.49-.63 0-1.195-.348-1.195-1.022 0-.94.765-1.267 1.611-1.319.282-.014.572-.044.846-.066.305-.022.446-.215.446-.504 0-.363-.297-.46-.646-.46-.46 0-.84.127-.958.601h-.801c.185-.948.898-1.267 1.81-1.267 1.396 0 1.44.615 1.44.889 0 .163-.022.341-.074.578l-.281 1.355zm-5.365-2.718h.802l-.156.748.015.014c.23-.422.705-.866 1.225-.866.133 0 .274 0 .408.022l-.179.808c-.096-.015-.2-.03-.296-.03-.876 0-1.248.666-1.41 1.437l-.357 1.696h-.847l.795-3.83zm-3.316 3.162c.905 0 1.277-.918 1.277-1.696 0-.548-.29-.903-.854-.903-.824 0-1.225.955-1.225 1.651 0 .519.23.948.802.948zm1.64.563c-.252 1.17-.727 1.623-1.937 1.623-.854 0-1.634-.327-1.648-1.223h.846c.023.437.394.593.876.593.757 0 .95-.452 1.084-1.074l.081-.378-.014-.015c-.26.37-.631.578-1.084.578-.95 0-1.492-.608-1.492-1.57 0-1.155.697-2.363 1.982-2.363.549 0 .98.208 1.188.741h.014l.112-.637h.801l-.809 3.725zm-6.894-1.444c0 .563.267.985.883.985.869 0 1.292-.94 1.292-1.718 0-.563-.267-.985-.883-.985-.869 0-1.292.955-1.292 1.718zm-.846-.022c0-1.26.868-2.363 2.19-2.363 1.054 0 1.678.578 1.678 1.644 0 1.341-.825 2.393-2.19 2.393-1.055 0-1.678-.607-1.678-1.674zm-2.129-2.26h.802l-.157.749.015.014c.23-.422.706-.866 1.225-.866.134 0 .275 0 .409.022l-.179.808c-.096-.015-.2-.03-.296-.03-.876 0-1.248.666-1.41 1.437l-.357 1.696h-.846l.794-3.83zm-4.117 1.045h1.402c.832 0 1.047-.555 1.047-1.022 0-.296-.126-.726-.884-.726h-1.202l-.363 1.748zm-.409-2.503h2.13c1.656 0 1.656 1.118 1.656 1.615 0 .03-.022 1.644-1.945 1.644h-1.589l-.423 2.03h-.928l1.1-5.29zm-6.44 0h.846l-.416 2h.015c.29-.385.78-.645 1.262-.645.772 0 1.121.4 1.121 1.015 0 .14-.007.34-.037.474l-.512 2.444h-.846l.49-2.363c.03-.126.06-.251.06-.355 0-.126.029-.548-.587-.548-.334 0-.594.163-.802.37-.193.2-.35.511-.416.822l-.43 2.074h-.847l1.1-5.288zm-2.18 2.725c.014-.474-.298-.703-.758-.703-.846 0-1.262.97-1.262 1.703 0 .57.223 1 .854 1 .497 0 .823-.296.965-.755h.846c-.275.977-.95 1.422-1.952 1.422s-1.559-.667-1.559-1.637c0-1.289.817-2.4 2.182-2.4.854 0 1.56.474 1.53 1.37h-.847zm-4.995-1.266h.801l-.155.748.014.014c.23-.422.706-.866 1.225-.866.134 0 .275 0 .409.022l-.179.808c-.096-.015-.2-.03-.296-.03-.876 0-1.248.666-1.41 1.437l-.357 1.696h-.846l.794-3.83zm-3.375 3.266c.823 0 1.098-.593 1.21-1.318l-.015-.015c-.12.119-.342.156-.527.178-.476.037-1.344.03-1.344.666 0 .37.364.489.676.489zm1.87-.548c-.03.14-.074.274-.074.378 0 .103.045.17.178.17.097 0 .2-.037.297-.045l-.134.608c-.215.052-.438.104-.66.104-.29 0-.498-.193-.512-.49-.334.334-.825.49-1.292.49-.631 0-1.195-.348-1.195-1.022 0-.94.765-1.267 1.61-1.319.283-.014.572-.044.847-.066.304-.022.445-.215.445-.504 0-.363-.297-.46-.646-.46-.46 0-.839.127-.957.601h-.802c.186-.948.898-1.267 1.811-1.267 1.396 0 1.44.615 1.44.889 0 .163-.022.341-.074.578l-.282 1.355zm-4.467-1.14c.008-.09.008-.163.008-.238 0-.451-.304-.777-.81-.777-.63 0-.994.422-1.165 1.015h1.967zm.617 1.066c-.268.889-.935 1.289-1.849 1.289-.972 0-1.677-.638-1.677-1.674 0-1.178.756-2.363 2.13-2.363 1.366 0 1.633 1.015 1.633 1.763 0 .185-.022.348-.044.474h-2.858c-.015.089-.015.17-.015.244 0 .526.275.889.913.889.453 0 .801-.222.92-.622h.847zm-4.683-1.525c-.007-.386-.319-.556-.772-.556-.326 0-.653.111-.653.481 0 .348.594.408 1.128.608.46.17.89.422.89 1.021 0 .89-.86 1.26-1.699 1.26-.883 0-1.588-.29-1.603-1.333h.802c-.015.481.356.666.846.666.349 0 .809-.111.809-.548 0-.4-.63-.482-1.173-.674-.453-.163-.846-.414-.846-.978 0-.836.794-1.17 1.581-1.17.831 0 1.514.267 1.492 1.223h-.802zm-3.769.459c.008-.09.008-.163.008-.238 0-.451-.304-.777-.81-.777-.63 0-.994.422-1.165 1.015H87.3zm.617 1.066c-.268.889-.936 1.289-1.849 1.289-.972 0-1.677-.638-1.677-1.674 0-1.178.757-2.363 2.13-2.363 1.366 0 1.633 1.015 1.633 1.763 0 .185-.022.348-.045.474h-2.857c-.015.089-.015.17-.015.244 0 .526.275.889.913.889.453 0 .802-.222.92-.622h.847zm-7.273-1.696h1.359c.787 0 1.232-.348 1.232-.963 0-.578-.46-.689-.95-.689h-1.299l-.342 1.652zM80.2 21.93h2.294c.453 0 1.67.06 1.67 1.348 0 .837-.453 1.304-1.202 1.437v.014c.445.164.564.519.564.956 0 .363-.09.733-.082 1.096 0 .148.015.304.097.437h-.973c-.044-.133-.059-.26-.059-.407 0-.393.089-.77.089-1.156 0-.614-.498-.614-.995-.614h-1.106l-.453 2.177h-.942l1.098-5.288zm-4.25 2.578c-.008-.386-.32-.556-.773-.556-.326 0-.653.111-.653.481 0 .348.594.408 1.128.608.46.17.891.422.891 1.021 0 .89-.861 1.26-1.7 1.26-.883 0-1.588-.29-1.603-1.333h.802c-.015.481.356.666.846.666.349 0 .809-.111.809-.548 0-.4-.63-.482-1.173-.674-.453-.163-.846-.414-.846-.978 0-.836.794-1.17 1.581-1.17.831 0 1.514.267 1.492 1.223h-.802zm-7.013-2.578h.928l-.683 3.236c-.03.141-.052.282-.06.43-.014.711.49.948 1.137.948.697 0 1.224-.267 1.454-1.355l.698-3.26h.928l-.698 3.319c-.185.874-.564 2.096-2.487 2.096-1.046 0-1.96-.518-1.96-1.63 0-.244.038-.473.09-.71l.653-3.074zm-4.696 2.089h-.631l.126-.63h.63c.186-.881.32-1.46 1.36-1.46.23 0 .43.03.63.053l-.141.644c-.104-.022-.208-.03-.326-.03-.572 0-.557.334-.676.793h.742l-.126.63h-.742l-.668 3.2h-.847l.669-3.2zm-4.281 1.651c0 .563.267.985.883.985.869 0 1.292-.94 1.292-1.718 0-.563-.268-.985-.884-.985-.868 0-1.291.955-1.291 1.718zm-.846-.022c0-1.26.868-2.363 2.19-2.363 1.053 0 1.677.578 1.677 1.644 0 1.341-.824 2.393-2.19 2.393-1.054 0-1.677-.607-1.677-1.674zm-2.93-3.718h.845l-1.098 5.288h-.847l1.1-5.288zm-1.789 0h.846l-1.098 5.288h-.847l1.1-5.288zm-3.04.933h-.016l-1.276 2.251h1.618l-.327-2.25zm-.32-.933h.98l.92 5.288h-.943l-.215-1.4h-2.108l-.816 1.4h-.995l3.177-5.288z" transform="translate(-413 -80) translate(-11 1) translate(147.668 71) translate(277 8)"/>
                    </g>
                </g>
            </g>
        </g>
    </g>
</svg>
