<svg xmlns="http://www.w3.org/2000/svg" width="220" height="29" viewBox="0 0 220 29">
    <g fill="none" fill-rule="evenodd">
        <g>
            <g>
                <g>
                    <g>
                        <g>
                            <path fill="#262262" d="M0 0H81.295V29H0z" transform="translate(-136 -79) translate(-11 1) translate(147.668 71) translate(0 7)"/>
                            <path fill="#FFF" d="M16.398 16.099l-1.28-3.695-1.28 3.695h2.56zM53.739 6.59v8.308c0 1.888.893 2.69 2.142 2.69 1.25 0 2.142-.738 2.142-2.581V6.59h4.72v8.265c0 5.184-2.756 7.224-6.901 7.224-4.146 0-6.823-2.083-6.823-7.116V6.591h4.72zm14.957 2.966c1.785 0 3.55.503 4.86 1.38l-1.429 2.955c-1.15-.701-2.539-1.117-3.451-1.117-.437 0-.635.132-.635.372v.044c0 .24.238.394 1.329.7 2.738.745 4.384 1.577 4.384 4.029v.044c0 2.605-1.765 4.116-4.701 4.116-2.103 0-4.008-.592-5.555-1.73l1.527-2.824c1.31.897 2.778 1.335 4.008 1.335.436 0 .654-.109.654-.394v-.044c0-.24-.198-.394-1.289-.7-2.738-.744-4.424-1.554-4.424-4.028v-.044c0-2.627 1.905-4.094 4.722-4.094zm-40.19-3.625v15.983h-4.525V5.932h4.525zm6.486 0v15.983h-4.525V5.932h4.525zm-17.514.494l5.9 15.324h-5.08l-.74-2.043h-4.9l-.72 2.043h-5l5.9-15.324h4.64zm29.093 3.13c.454 0 .824.097 1.112.29.287.194.43.451.43.773 0 .215-.069.402-.207.563-.14.161-.316.242-.531.242-.31 0-.575-.238-.798-.715-.164-.356-.33-.534-.498-.534-.196 0-.346.285-.452.856l-.387 2.163h.874l-.2.715h-.82l-.587 2.884c-.34 1.665-.793 2.908-1.358 3.727-.565.82-1.332 1.23-2.301 1.23-.461 0-.799-.096-1.012-.29-.213-.193-.32-.427-.32-.701 0-.25.083-.458.25-.628.166-.17.358-.254.577-.254.454 0 .716.266.786.798.035.27.143.406.323.406.184 0 .35-.18.501-.541.15-.36.333-1.088.548-2.183l.182-.933c.055-.223.094-.4.118-.528l.592-2.987h-.762l.199-.715h.698c.367-1.468.796-2.44 1.287-2.92.49-.478 1.076-.717 1.756-.717zm-7.198 3.461c.88 0 1.525.227 1.938.68.412.453.619 1.001.619 1.645 0 .885-.317 1.652-.95 2.302-.634.65-1.443.975-2.428.975-.716 0-1.312-.196-1.79-.587-.476-.392-.714-.992-.714-1.801 0-.445.12-.922.36-1.432.24-.51.618-.935 1.132-1.274.514-.339 1.125-.508 1.833-.508zm.1.61c-.517 0-.93.415-1.24 1.245-.312.83-.467 1.497-.467 2 0 .377.065.66.196.848.131.189.328.283.59.283.484 0 .88-.396 1.187-1.188.307-.791.46-1.46.46-2.007 0-.415-.073-.716-.22-.902-.146-.186-.315-.28-.507-.28z" transform="translate(-136 -79) translate(-11 1) translate(147.668 71) translate(0 7)"/>
                        </g>
                        <path fill="#262262" fill-rule="nonzero" d="M90.595 22.244v-6.02h4.352l4.238 6.02h1.254l-4.39-6.207c.557-.083 1.074-.232 1.549-.447.475-.214.887-.495 1.235-.84.349-.347.62-.758.817-1.236.197-.477.295-1.02.295-1.63v-.041c0-.526-.089-1.02-.266-1.485-.178-.463-.425-.868-.741-1.214-.406-.443-.925-.792-1.559-1.049-.633-.256-1.362-.384-2.185-.384h-5.587v14.533h.988zm4.485-6.996h-4.485v-6.54h4.542c1.216 0 2.157.284 2.822.851.665.568.998 1.343.998 2.325v.042c0 .526-.099.993-.295 1.401-.196.409-.466.755-.808 1.038-.342.284-.75.502-1.225.654-.475.153-.992.229-1.55.229zm12.143 7.245c.925 0 1.701-.186 2.328-.56.628-.374 1.188-.851 1.682-1.433l-.646-.622c-.405.47-.87.865-1.397 1.183-.525.318-1.168.477-1.929.477-.481 0-.94-.093-1.377-.28-.437-.187-.827-.46-1.17-.82-.341-.36-.626-.796-.854-1.308-.228-.512-.361-1.1-.4-1.765h8.04c.012-.083.018-.148.018-.197v-.218c0-.789-.104-1.519-.313-2.19-.21-.671-.507-1.256-.893-1.754-.387-.499-.852-.89-1.397-1.174-.545-.283-1.16-.425-1.844-.425-.658 0-1.267.145-1.824.436-.557.29-1.042.685-1.454 1.183-.412.499-.735 1.083-.969 1.755-.234.67-.352 1.387-.352 2.148v.042c0 .83.127 1.585.38 2.263.254.678.6 1.26 1.036 1.744.437.484.944.858 1.52 1.121.577.263 1.182.394 1.815.394zm3.288-6.041h-7.05c.038-.581.158-1.125.36-1.63.203-.505.46-.941.77-1.308.31-.367.675-.654 1.093-.861.418-.208.868-.312 1.35-.312.557 0 1.045.114 1.463.343.418.228.77.533 1.054.913.285.38.507.817.666 1.308.158.492.256 1.007.294 1.547zm6.86 6c.47 0 .906-.073 1.312-.218.405-.145.76-.353 1.064-.623.304-.27.542-.595.713-.976.17-.38.256-.806.256-1.277v-.041c0-.47-.091-.865-.275-1.183-.184-.319-.428-.592-.732-.82-.304-.229-.646-.416-1.026-.561-.38-.145-.767-.28-1.16-.405-.341-.11-.677-.225-1.007-.342-.329-.118-.617-.253-.864-.405-.247-.153-.447-.336-.599-.55-.152-.215-.228-.468-.228-.758v-.042c0-.526.2-.965.599-1.318.399-.353.934-.53 1.606-.53.519 0 1.035.097 1.548.291.514.194.992.45 1.435.768l.494-.851c-.481-.36-1.03-.644-1.644-.851-.614-.208-1.213-.312-1.795-.312-.47 0-.9.073-1.293.218-.392.146-.728.35-1.007.613-.279.263-.497.57-.656.924-.158.353-.237.744-.237 1.173v.041c0 .47.098.865.294 1.184.197.318.453.584.77.799.317.215.675.391 1.074.53.399.138.795.27 1.188.394.342.11.665.221.969.332.304.11.576.25.817.415.24.166.43.36.57.582.14.221.21.484.21.789v.041c0 .623-.226 1.114-.675 1.474-.45.36-1.005.54-1.663.54-.621 0-1.223-.121-1.806-.363-.583-.243-1.14-.585-1.672-1.028l-.551.81c.52.456 1.134.827 1.843 1.11.71.284 1.42.426 2.129.426zm10.396.041c.925 0 1.7-.186 2.328-.56.627-.374 1.188-.851 1.682-1.433l-.646-.622c-.406.47-.871.865-1.397 1.183-.526.318-1.169.477-1.93.477-.48 0-.94-.093-1.377-.28-.437-.187-.827-.46-1.169-.82-.342-.36-.627-.796-.855-1.308-.228-.512-.36-1.1-.399-1.765h8.039c.012-.083.019-.148.019-.197v-.218c0-.789-.105-1.519-.314-2.19-.209-.671-.507-1.256-.893-1.754-.386-.499-.852-.89-1.397-1.174-.545-.283-1.159-.425-1.843-.425-.659 0-1.267.145-1.825.436-.557.29-1.042.685-1.453 1.183-.412.499-.735 1.083-.97 1.755-.234.67-.351 1.387-.351 2.148v.042c0 .83.127 1.585.38 2.263.253.678.599 1.26 1.036 1.744.437.484.944.858 1.52 1.121.576.263 1.181.394 1.815.394zm3.288-6.041h-7.05c.037-.581.157-1.125.36-1.63.203-.505.46-.941.77-1.308.31-.367.674-.654 1.093-.861.418-.208.867-.312 1.349-.312.557 0 1.045.114 1.463.343.418.228.77.533 1.055.913.285.38.507.817.665 1.308.158.492.257 1.007.295 1.547zm6.67 6.041c.456 0 .877-.058 1.264-.176.386-.118.731-.27 1.036-.457.304-.187.573-.401.807-.643.235-.243.434-.488.599-.737v1.764h.912v-6.602c0-1.273-.33-2.27-.988-2.99-.71-.775-1.73-1.162-3.06-1.162-.671 0-1.28.083-1.824.25-.545.165-1.083.387-1.616.663l.343.893c.443-.249.912-.453 1.406-.612.494-.16 1.039-.239 1.634-.239 1.001 0 1.783.27 2.347.81.564.54.846 1.35.846 2.429v.456c-.469-.138-.95-.249-1.444-.332-.495-.083-1.084-.124-1.768-.124-.633 0-1.21.076-1.73.228-.519.152-.962.374-1.33.664-.367.291-.655.651-.864 1.08-.21.43-.314.92-.314 1.474v.042c0 .553.111 1.038.333 1.453.222.415.51.761.865 1.038.354.277.753.484 1.197.623.443.138.893.207 1.35.207zm.057-.955c-.367 0-.722-.055-1.064-.166-.342-.11-.643-.27-.903-.477-.26-.208-.465-.46-.617-.758-.153-.298-.229-.64-.229-1.028v-.041c0-.748.276-1.346.827-1.796.551-.45 1.34-.675 2.366-.675.697 0 1.318.052 1.863.156.544.104 1.02.211 1.425.322v1.204c0 .484-.098.927-.295 1.329-.196.401-.462.744-.798 1.027-.336.284-.725.506-1.169.665-.443.159-.912.238-1.406.238zm8.837.706v-4.339c0-.858.114-1.616.342-2.273.228-.658.535-1.211.922-1.661.386-.45.833-.789 1.34-1.017.506-.229 1.038-.343 1.596-.343h.095V11.49c-.482-.014-.94.052-1.378.197-.437.145-.84.36-1.207.644-.367.284-.696.626-.988 1.027-.291.402-.532.838-.722 1.308v-3.01h-.931v10.588h.931zm10.946.25c.887 0 1.644-.198 2.271-.592.628-.395 1.188-.896 1.682-1.505l-.646-.623c-.405.498-.877.917-1.416 1.256-.538.339-1.15.508-1.834.508-.557 0-1.077-.117-1.558-.353-.481-.235-.903-.56-1.264-.975-.36-.416-.646-.903-.855-1.464-.209-.56-.313-1.16-.313-1.796v-.041c0-.637.1-1.232.304-1.786.202-.553.478-1.034.826-1.443.349-.408.76-.73 1.236-.965.475-.235.99-.353 1.548-.353.723 0 1.337.173 1.844.519.507.346.969.754 1.387 1.225l.665-.748c-.228-.263-.472-.512-.731-.747-.26-.235-.548-.443-.865-.623-.317-.18-.662-.322-1.036-.425-.374-.104-.789-.156-1.245-.156-.696 0-1.346.149-1.948.446-.601.298-1.124.703-1.567 1.215-.444.512-.792 1.1-1.046 1.765-.253.664-.38 1.37-.38 2.117v.042c0 .747.127 1.453.38 2.117.254.665.602 1.246 1.046 1.744.443.499.966.897 1.567 1.194.602.298 1.252.446 1.948.446zm7.507-.25V16.12c0-.554.086-1.063.257-1.526.17-.464.408-.862.712-1.194.304-.332.659-.592 1.064-.779.406-.186.85-.28 1.33-.28.989 0 1.75.329 2.281.986.532.658.798 1.533.798 2.627v6.29h.932v-6.477c0-.637-.086-1.222-.257-1.755-.171-.532-.424-.993-.76-1.38-.336-.388-.744-.689-1.226-.903-.481-.215-1.026-.322-1.634-.322-.887 0-1.61.214-2.167.643-.557.43-1 .956-1.33 1.578v-6.54h-.931v15.156h.931zm17.617 0v-6.81h8.514v6.81h.988V7.711h-.988v6.727h-8.514V7.711h-.988v14.533h.988zm16.933.25c.886 0 1.609-.215 2.166-.644.557-.43 1-.955 1.33-1.578v1.972h.931V11.656h-.93v6.125c0 .553-.086 1.062-.257 1.526-.171.463-.409.861-.713 1.193-.304.333-.662.592-1.074.779-.411.187-.852.28-1.32.28-.989 0-1.749-.329-2.28-.986-.533-.657-.8-1.533-.8-2.626v-6.291h-.93v6.478c0 .636.085 1.221.256 1.754.171.533.425.993.76 1.38.336.388.745.69 1.226.904.482.214 1.026.321 1.635.321zm12.884 0c.583 0 1.156-.129 1.72-.385.564-.256 1.068-.622 1.511-1.1.443-.477.801-1.059 1.074-1.744.272-.685.408-1.457.408-2.315v-.041c0-.858-.136-1.63-.408-2.315-.273-.685-.63-1.263-1.074-1.734-.443-.47-.947-.83-1.51-1.08-.565-.249-1.138-.373-1.72-.373-.482 0-.922.073-1.321.218-.4.145-.76.336-1.084.57-.323.236-.617.513-.883.831-.266.319-.5.65-.704.997V7.089h-.93v15.155h.93v-2.283c.203.332.434.65.694.955.26.304.551.574.874.81.323.235.688.421 1.093.56.405.138.849.207 1.33.207zm-.095-.976c-.506 0-.997-.111-1.473-.333-.475-.221-.896-.529-1.263-.923-.368-.395-.662-.872-.884-1.433-.222-.56-.333-1.18-.333-1.858v-.042c0-.678.111-1.294.333-1.847.222-.554.516-1.032.884-1.433.367-.401.788-.713 1.263-.934.476-.222.967-.332 1.473-.332.507 0 .992.107 1.454.321.463.215.868.52 1.216.914.349.394.624.875.827 1.443.203.567.304 1.197.304 1.89v.04c0 .707-.098 1.34-.294 1.9-.197.56-.466 1.035-.808 1.423-.342.387-.744.685-1.207.892-.462.208-.96.312-1.492.312z" transform="translate(-136 -79) translate(-11 1) translate(147.668 71) translate(0 7)"/>
                    </g>
                </g>
            </g>
        </g>
    </g>
</svg>
