<svg xmlns="http://www.w3.org/2000/svg" width="685" height="110" viewBox="0 0 685 110">
    <g fill="none" fill-rule="evenodd">
        <g fill="#FFF">
            <path d="M665.426 66.991h4.74V54.313c0-3.16 2.039-5.655 5.196-5.655 2.787 0 4.114 1.454 4.2 4.824v13.509h4.74V52.234c0-4.822-2.952-7.317-7.609-7.317-2.826 0-5.278 1.456-6.445 3.408h-.082V37.309h-4.74v29.682zm-15.174-17.958h3.575v12.68c.082 3.575.995 5.488 5.942 5.488 1.043 0 2.037-.169 3.076-.249v-3.659c-.663.166-1.327.166-1.994.166-2.12 0-2.285-.997-2.285-2.954V49.033h4.279v-3.534h-4.279v-6.441h-4.739v6.441h-3.575v3.534zm-6.902 17.959h4.74V37.31h-4.74v29.682zm-4.408-15.838c0-4.531-4.408-6.236-8.605-6.236-4.74 0-9.436 1.621-9.771 7.15h4.739c.206-2.329 2.08-3.409 4.74-3.409 1.913 0 4.449.459 4.449 2.911 0 2.786-3.036 2.411-6.445 3.032-3.988.459-8.271 1.331-8.271 6.696 0 4.197 3.488 6.276 7.358 6.276 2.535 0 5.571-.792 7.441-2.618.374 1.952 1.746 2.618 3.657 2.618.79 0 2.29-.292 2.995-.541v-3.282c-.5.082-.874.082-1.166.082-.873 0-1.121-.459-1.121-1.621V51.154zm-4.74 8.605c0 2.992-3.244 4.074-5.321 4.074-1.663 0-4.364-.623-4.364-2.743 0-2.495 1.827-3.244 3.864-3.575 2.082-.375 4.365-.333 5.821-1.29v3.534zm-16.048-2.287c.792-6.442-3.365-12.556-10.144-12.556-6.402 0-10.392 5.239-10.392 11.351 0 6.608 3.783 11.308 10.517 11.308 4.697 0 8.69-2.619 9.729-7.318h-4.489c-.833 2.371-2.495 3.574-5.24 3.574-3.951 0-5.778-2.991-5.778-6.359h15.797zm-15.797-3.118c.126-3.201 2.37-5.696 5.653-5.696 3.201 0 5.24 2.705 5.404 5.696h-11.057zm-32.344 12.637h5.196V53.608h13.507v13.383h5.196V37.309h-5.196v11.808h-13.507V37.309h-5.196v29.682zM544.36 49.033h3.533v17.958h4.74V49.033h4.032v-3.534h-4.032v-2.201c0-1.788 1.037-2.247 2.329-2.247.955 0 1.578.082 2.203.251v-3.701c-.748-.207-1.83-.292-3.326-.292-3.078 0-5.946.916-5.946 6.404v1.786h-3.533v3.534zm-22.702 7.192c0 6.612 3.952 11.349 10.851 11.349 6.9 0 10.851-4.737 10.851-11.349 0-6.569-3.951-11.308-10.851-11.308-6.899 0-10.851 4.739-10.851 11.308zm16.963 0c0 3.741-1.87 7.607-6.112 7.607-4.24 0-6.112-3.866-6.112-7.607 0-3.699 1.872-7.566 6.112-7.566 4.242 0 6.112 3.867 6.112 7.566zm-48.601 3.867c.084 5.071 4.116 7.482 9.523 7.482 4.445 0 9.602-1.87 9.602-6.982 0-4.242-3.493-5.49-6.945-6.278-3.488-.79-6.984-1.123-6.984-3.452 0-1.87 2.539-2.203 3.909-2.203 2.08 0 3.949.623 4.365 2.868h4.947c-.582-4.779-4.573-6.61-8.979-6.61-3.909 0-8.979 1.456-8.979 6.152 0 4.366 3.408 5.614 6.9 6.361 3.451.792 6.903 1.08 7.026 3.576.124 2.454-2.993 2.826-4.78 2.826-2.536 0-4.617-.995-4.866-3.74h-4.739zm-1.623-2.62c.79-6.442-3.365-12.556-10.143-12.556-6.403 0-10.393 5.239-10.393 11.351 0 6.608 3.783 11.308 10.518 11.308 4.696 0 8.687-2.619 9.728-7.318h-4.489c-.833 2.371-2.495 3.574-5.239 3.574-3.95 0-5.779-2.991-5.779-6.359h15.797zM472.6 54.354c.126-3.201 2.37-5.696 5.654-5.696 3.2 0 5.239 2.705 5.403 5.696H472.6zm-18.874-5.321h3.575v12.68c.082 3.575.997 5.488 5.945 5.488 1.039 0 2.037-.169 3.078-.249v-3.659c-.669.166-1.331.166-1.998.166-2.121 0-2.285-.997-2.285-2.954V49.033h4.283v-3.534h-4.283v-6.441h-4.74v6.441h-3.575v3.534zm-1.998-3.534h-4.738v12.472c0 3.326-1.333 5.861-5.28 5.861-2.578 0-4.117-1.37-4.117-5.154V45.499h-4.737v13.636c0 5.612 2.409 8.439 8.021 8.439 2.372 0 4.947-1.413 6.113-3.575h.083v2.992h4.655V45.499zm-34.048 3.534h3.576v12.68c.082 3.575.998 5.488 5.945 5.488 1.039 0 2.036-.169 3.075-.249v-3.659c-.664.166-1.329.166-1.995.166-2.121 0-2.288-.997-2.288-2.954V49.033h4.283v-3.534h-4.283v-6.441h-4.737v6.441h-3.576v3.534zm-6.902-7.232h4.739V37.31h-4.739v4.491zm0 25.191h4.739V45.5h-4.739v21.492zm-15.299-17.959h3.575v12.68c.082 3.575.998 5.488 5.946 5.488 1.039 0 2.036-.169 3.075-.249v-3.659c-.664.166-1.329.166-1.995.166-2.119 0-2.286-.997-2.286-2.954V49.033h4.281v-3.534h-4.281v-6.441h-4.74v6.441h-3.575v3.534zM375.73 60.092c.082 5.071 4.116 7.482 9.52 7.482 4.448 0 9.602-1.87 9.602-6.982 0-4.242-3.492-5.49-6.942-6.278-3.491-.79-6.984-1.123-6.984-3.452 0-1.87 2.537-2.203 3.909-2.203 2.077 0 3.947.623 4.365 2.868h4.947c-.582-4.779-4.573-6.61-8.979-6.61-3.909 0-8.98 1.456-8.98 6.152 0 4.366 3.407 5.614 6.9 6.361 3.45.792 6.902 1.08 7.025 3.576.126 2.454-2.993 2.826-4.78 2.826-2.535 0-4.615-.995-4.864-3.74h-4.739zm-21.868 6.899h4.739V54.313c0-3.16 2.036-5.655 5.197-5.655 2.785 0 4.114 1.454 4.198 4.824v13.509h4.739V52.234c0-4.822-2.951-7.317-7.606-7.317-2.83 0-5.282 1.456-6.695 3.826l-.082-.085v-3.159h-4.49v21.492zm-10.063.001h5.197V37.31h-5.197v29.682zm-20.456 0h4.74V37.31h-4.74v29.682zm-4.406-15.838c0-4.531-4.407-6.236-8.605-6.236-4.74 0-9.438 1.621-9.771 7.15h4.739c.208-2.329 2.08-3.409 4.74-3.409 1.913 0 4.447.459 4.447 2.911 0 2.786-3.034 2.411-6.442 3.032-3.991.459-8.272 1.331-8.272 6.696 0 4.197 3.491 6.276 7.356 6.276 2.537 0 5.573-.792 7.443-2.618.374 1.952 1.746 2.618 3.657 2.618.79 0 2.288-.292 2.993-.541v-3.282c-.498.082-.872.082-1.162.082-.874 0-1.123-.459-1.123-1.621V51.154zm-4.74 8.605c0 2.992-3.242 4.074-5.321 4.074-1.662 0-4.364-.623-4.364-2.743 0-2.495 1.829-3.244 3.866-3.575 2.078-.375 4.365-.333 5.819-1.29v3.534zm-36.293 7.232h4.737V54.313c0-3.16 2.039-5.655 5.199-5.655 2.785 0 4.114 1.454 4.198 4.824v13.509h4.739V52.234c0-4.822-2.951-7.317-7.606-7.317-2.829 0-5.281 1.456-6.694 3.826l-.083-.085v-3.159h-4.49v21.492zm-24.822-10.766c0 6.612 3.95 11.349 10.851 11.349 6.9 0 10.849-4.737 10.849-11.349 0-6.569-3.949-11.308-10.849-11.308-6.901 0-10.851 4.739-10.851 11.308zm16.963 0c0 3.741-1.872 7.607-6.112 7.607-4.241 0-6.111-3.866-6.111-7.607 0-3.699 1.87-7.566 6.111-7.566 4.24 0 6.112 3.867 6.112 7.566zm-25.029-14.424h4.74V37.31h-4.74v4.491zm0 25.191h4.74V45.5h-4.74v21.492zm-15.298-17.959h3.575v12.68c.083 3.575.998 5.488 5.945 5.488 1.039 0 2.037-.169 3.076-.249v-3.659c-.665.166-1.329.166-1.996.166-2.119 0-2.285-.997-2.285-2.954V49.033h4.281v-3.534h-4.281v-6.441h-4.74v6.441h-3.575v3.534zm-2.123 2.121c0-4.531-4.406-6.236-8.605-6.236-4.739 0-9.438 1.621-9.771 7.15h4.74c.208-2.329 2.079-3.409 4.739-3.409 1.913 0 4.448.459 4.448 2.911 0 2.786-3.035 2.411-6.443 3.032-3.991.459-8.272 1.331-8.272 6.696 0 4.197 3.491 6.276 7.358 6.276 2.535 0 5.571-.792 7.441-2.618.374 1.952 1.746 2.618 3.659 2.618.788 0 2.286-.292 2.992-.541v-3.282c-.499.082-.873.082-1.163.082-.874 0-1.123-.459-1.123-1.621V51.154zm-4.739 8.605c0 2.992-3.243 4.074-5.322 4.074-1.662 0-4.363-.623-4.363-2.743 0-2.495 1.829-3.244 3.865-3.575 2.078-.375 4.365-.333 5.82-1.29v3.534zm-41.99-22.45h5.489l13.552 21.867h.082V37.309h4.947v29.682h-5.486l-13.511-21.824h-.125v21.824h-4.948V37.309zm-36.078 15.56L115.921.087H9.609C4.303.087 0 4.441 0 9.812v86.204c0 5.371 4.303 9.727 9.609 9.727h106.215l28.964-52.874zM54.023 76.647h-8.627L24.154 41.915h-.197v34.732h-7.778V29.412h8.629L46.114 64.21h.131V29.412h7.778v47.235zm8.049 0h8.171V29.414h-8.171v47.233zm53.925-47.235v47.235h-8.169V55.346H86.585v21.301h-8.171V29.412h8.171v18.79h21.243v-18.79h8.169zM521.16 88.716h3.036l-.422 2.052.056.056c1.179-1.517 2.977-2.501 4.971-2.501 1.771 0 3.343.675 3.681 2.586 1.292-1.489 2.949-2.586 4.916-2.586 2.782 0 4.13 1.517 4.13 3.849 0 .535-.112 1.292-.225 1.798l-1.854 9.271h-3.202l1.798-8.596c.056-.338.253-1.013.281-1.714.028-1.041-.337-2.079-1.995-2.079-2.473 0-3.821 2.277-4.158 3.905l-1.77 8.484h-3.202l1.657-7.98c.141-.729.422-1.741.422-2.611 0-.984-.422-1.798-1.77-1.798-1.235 0-2.079.534-2.726 1.152-.645.618-1.432 1.685-1.686 2.837l-1.741 8.4h-3.202l3.005-14.525zm-12.943 12.389c3.118 0 4.159-2.248 4.579-5l-.057-.056c-.448.45-1.292.59-1.993.675-1.798.141-5.086.113-5.086 2.528 0 1.403 1.378 1.853 2.557 1.853zm7.08-2.079c-.114.534-.282 1.041-.282 1.435 0 .391.168.644.675.644.365 0 .757-.14 1.123-.169l-.507 2.305c-.813.197-1.657.393-2.499.393-1.096 0-1.882-.731-1.938-1.854-1.264 1.264-3.117 1.854-4.888 1.854-2.388 0-4.523-1.319-4.523-3.877 0-3.567 2.894-4.803 6.096-5 1.067-.056 2.164-.168 3.203-.252 1.151-.085 1.685-.816 1.685-1.912 0-1.376-1.123-1.741-2.444-1.741-1.742 0-3.175.478-3.624 2.277h-3.034c.703-3.597 3.399-4.806 6.854-4.806 5.281 0 5.45 2.332 5.45 3.371 0 .618-.084 1.294-.281 2.191l-1.066 5.141zm-20.306-10.31h3.033l-.591 2.837.057.056c.871-1.601 2.67-3.286 4.636-3.286.505 0 1.039 0 1.545.084l-.675 3.063c-.365-.055-.759-.112-1.123-.112-3.315 0-4.721 2.527-5.337 5.45l-1.351 6.433h-3.202l3.008-14.525zm-12.552 11.996c3.427 0 4.833-3.484 4.833-6.433 0-2.079-1.097-3.427-3.232-3.427-3.117 0-4.634 3.624-4.634 6.264 0 1.967.87 3.596 3.033 3.596zm6.209 2.135c-.956 4.44-2.754 6.154-7.332 6.154-3.23 0-6.182-1.239-6.237-4.637h3.204c.084 1.657 1.488 2.248 3.314 2.248 2.865 0 3.596-1.714 4.101-4.074l.309-1.433-.056-.056c-.983 1.405-2.387 2.192-4.101 2.192-3.595 0-5.646-2.305-5.646-5.956 0-4.382 2.639-8.962 7.501-8.962 2.077 0 3.706.787 4.494 2.81h.056l.421-2.417h3.034l-3.062 14.131zm-26.091-5.478c0 2.136 1.011 3.736 3.343 3.736 3.286 0 4.888-3.567 4.888-6.516 0-2.136-1.011-3.737-3.343-3.737-3.286 0-4.888 3.624-4.888 6.517zm-3.202-.084c0-4.776 3.286-8.962 8.287-8.962 3.99 0 6.35 2.191 6.35 6.237 0 5.085-3.12 9.074-8.289 9.074-3.989 0-6.348-2.303-6.348-6.349zm-8.057-8.569h3.033l-.591 2.837.057.056c.872-1.601 2.669-3.286 4.636-3.286.504 0 1.038 0 1.545.084l-.675 3.063c-.366-.055-.759-.112-1.123-.112-3.315 0-4.721 2.527-5.338 5.45l-1.349 6.433h-3.202l3.007-14.525zm-15.583 3.962h5.309c3.147 0 3.962-2.107 3.962-3.877 0-1.123-.479-2.753-3.345-2.753h-4.551l-1.375 6.63zm-1.545-9.496h8.061c6.266 0 6.266 4.243 6.266 6.125 0 .113-.084 6.236-7.361 6.236h-6.012l-1.601 7.698h-3.512l4.159-20.059zm-24.373 0h3.202l-1.574 7.586h.057c1.095-1.461 2.948-2.445 4.775-2.445 2.922 0 4.243 1.517 4.243 3.849 0 .535-.029 1.292-.141 1.798l-1.938 9.271h-3.203l1.855-8.962c.112-.478.225-.954.225-1.348 0-.478.112-2.079-2.22-2.079-1.264 0-2.248.618-3.033 1.405-.732.758-1.323 1.938-1.574 3.117l-1.631 7.867h-3.202l4.159-20.059zm-8.253 10.338c.056-1.798-1.125-2.668-2.867-2.668-3.202 0-4.775 3.68-4.775 6.46 0 2.164.844 3.793 3.23 3.793 1.882 0 3.118-1.123 3.653-2.864h3.202c-1.039 3.708-3.597 5.393-7.387 5.393-3.793 0-5.9-2.529-5.9-6.209 0-4.887 3.09-9.102 8.259-9.102 3.23 0 5.899 1.798 5.787 5.197h-3.202zm-18.902-4.804h3.033l-.589 2.837.055.056c.872-1.601 2.67-3.286 4.637-3.286.504 0 1.038 0 1.545.084l-.675 3.063c-.366-.055-.76-.112-1.123-.112-3.314 0-4.721 2.527-5.338 5.45l-1.349 6.433h-3.202l3.006-14.525zm-12.774 12.389c3.118 0 4.157-2.248 4.579-5l-.056-.056c-.45.45-1.293.59-1.995.675-1.798.141-5.085.113-5.085 2.528 0 1.403 1.377 1.853 2.557 1.853zm7.08-2.079c-.112.534-.281 1.041-.281 1.435 0 .391.169.644.673.644.366 0 .759-.14 1.125-.169l-.506 2.305c-.816.197-1.658.393-2.5.393-1.096 0-1.883-.731-1.939-1.854-1.264 1.264-3.119 1.854-4.888 1.854-2.388 0-4.524-1.319-4.524-3.877 0-3.567 2.895-4.803 6.097-5 1.067-.056 2.163-.168 3.203-.252 1.151-.085 1.685-.816 1.685-1.912 0-1.376-1.124-1.741-2.444-1.741-1.741 0-3.175.478-3.624 2.277h-3.034c.702-3.597 3.399-4.806 6.855-4.806 5.282 0 5.451 2.332 5.451 3.371 0 .618-.085 1.294-.282 2.191l-1.067 5.141zm-16.905-4.325c.028-.337.028-.618.028-.9 0-1.713-1.151-2.949-3.062-2.949-2.388 0-3.764 1.601-4.411 3.849h7.445zm2.332 4.044c-1.012 3.373-3.539 4.889-6.995 4.889-3.68 0-6.349-2.417-6.349-6.349 0-4.466 2.864-8.962 8.062-8.962 5.169 0 6.181 3.849 6.181 6.687 0 .702-.085 1.321-.169 1.798H352.29c-.057.336-.057.645-.057.926 0 1.995 1.04 3.371 3.455 3.371 1.714 0 3.034-.842 3.484-2.36h3.203zm-17.72-5.785c-.028-1.461-1.209-2.108-2.922-2.108-1.236 0-2.472.422-2.472 1.826 0 1.32 2.246 1.545 4.27 2.304 1.741.646 3.37 1.602 3.37 3.875 0 3.373-3.258 4.777-6.432 4.777-3.344 0-6.012-1.096-6.068-5.056h3.034c-.056 1.826 1.348 2.527 3.202 2.527 1.321 0 3.062-.422 3.062-2.079 0-1.517-2.387-1.826-4.438-2.555-1.714-.619-3.203-1.573-3.203-3.709 0-3.174 3.006-4.439 5.984-4.439 3.146 0 5.73 1.013 5.647 4.637h-3.034zm-14.264 1.741c.028-.337.028-.618.028-.9 0-1.713-1.151-2.949-3.062-2.949-2.389 0-3.765 1.601-4.41 3.849h7.444zm2.332 4.044c-1.011 3.373-3.54 4.889-6.995 4.889-3.68 0-6.349-2.417-6.349-6.349 0-4.466 2.866-8.962 8.063-8.962 5.169 0 6.18 3.849 6.18 6.687 0 .702-.085 1.321-.169 1.798h-10.816c-.056.336-.056.645-.056.926 0 1.995 1.04 3.371 3.455 3.371 1.714 0 3.035-.842 3.484-2.36h3.203zm-27.522-6.433h5.142c2.977 0 4.664-1.319 4.664-3.651 0-2.193-1.742-2.613-3.596-2.613h-4.917l-1.293 6.264zm-1.685-9.13h8.681c1.714 0 6.321.225 6.321 5.113 0 3.175-1.714 4.946-4.551 5.45v.056c1.685.619 2.135 1.967 2.135 3.624 0 1.376-.337 2.783-.309 4.159 0 .562.056 1.151.365 1.657h-3.68c-.168-.506-.224-.983-.224-1.545 0-1.488.336-2.923.336-4.384 0-2.33-1.882-2.33-3.765-2.33h-4.185l-1.714 8.259h-3.567l4.157-20.059zm-16.087 9.778c-.028-1.461-1.209-2.108-2.922-2.108-1.235 0-2.472.422-2.472 1.826 0 1.32 2.247 1.545 4.27 2.304 1.742.646 3.371 1.602 3.371 3.875 0 3.373-3.259 4.777-6.433 4.777-3.343 0-6.012-1.096-6.069-5.056h3.035c-.057 1.826 1.348 2.527 3.202 2.527 1.321 0 3.063-.422 3.063-2.079 0-1.517-2.388-1.826-4.439-2.555-1.714-.619-3.202-1.573-3.202-3.709 0-3.174 3.005-4.439 5.984-4.439 3.145 0 5.73 1.013 5.646 4.637h-3.034zm-26.538-9.778h3.511l-2.584 12.277c-.113.534-.197 1.068-.224 1.629-.057 2.698 1.853 3.595 4.298 3.595 2.64 0 4.635-1.01 5.506-5.14l2.641-12.361h3.511l-2.641 12.586c-.702 3.315-2.135 7.951-9.411 7.951-3.961 0-7.417-1.966-7.417-6.181 0-.926.141-1.798.338-2.697l2.472-11.659zm-17.774 7.923h-2.388l.478-2.389h2.387c.703-3.342 1.208-5.534 5.141-5.534.871 0 1.63.113 2.389.198l-.535 2.444c-.393-.084-.786-.112-1.235-.112-2.164 0-2.108 1.263-2.557 3.004h2.809l-.477 2.389h-2.81l-2.528 12.136h-3.203l2.529-12.136zm-16.201 6.264c0 2.136 1.011 3.736 3.342 3.736 3.288 0 4.889-3.567 4.889-6.516 0-2.136-1.012-3.737-3.343-3.737-3.287 0-4.888 3.624-4.888 6.517zm-3.202-.084c0-4.776 3.286-8.962 8.286-8.962 3.99 0 6.349 2.191 6.349 6.237 0 5.085-3.118 9.074-8.286 9.074-3.99 0-6.349-2.303-6.349-6.349zm-11.09-14.103h3.202l-4.158 20.059h-3.203l4.159-20.059zm-6.767 0h3.202l-4.157 20.059h-3.204l4.159-20.059zm-11.509 3.54h-.056l-4.832 8.539h6.124l-1.236-8.539zM130.381.085c3.952 0 8.753 2.87 10.662 6.364l25.358 46.421-25.442 46.512c-1.918 3.501-6.717 6.363-10.666 6.363h-7.227l28.933-52.875L123.163.085h7.218zm66.467 83.097l3.484 20.059h-3.569l-.814-5.31h-7.979l-3.089 5.31h-3.765l12.024-20.059h3.708z"/>
        </g>
    </g>
</svg>
