<svg xmlns="http://www.w3.org/2000/svg" viewBox="0 0 128.09 94"><defs><style>.cls-1{fill:#2891cf;}</style></defs><title>source_btn_active</title><g id="Layer_2" data-name="Layer 2"><g id="Layer_1-2" data-name="Layer 1"><path class="cls-1" d="M115.12,0H13A13,13,0,0,0,0,13V81A13,13,0,0,0,13,94H115.12a13,13,0,0,0,13-13V13A13,13,0,0,0,115.12,0ZM48.44,21a5.85,5.85,0,0,1,5.84-5.84H72.8A5.85,5.85,0,0,1,78.64,21v9.32a5.85,5.85,0,0,1-5.84,5.84H54.28a5.85,5.85,0,0,1-5.84-5.84ZM42.18,44.69h20V38.25h3v6.44H85.86V55.26h-3V47.69H45.18v7.57h-3ZM59.22,73a5.86,5.86,0,0,1-5.84,5.84H34.86A5.86,5.86,0,0,1,29,73V63.67a5.86,5.86,0,0,1,5.84-5.84H53.38a5.86,5.86,0,0,1,5.84,5.84Zm39.35,0a5.86,5.86,0,0,1-5.84,5.84H74.21A5.86,5.86,0,0,1,68.37,73V63.67a5.86,5.86,0,0,1,5.84-5.84H92.73a5.86,5.86,0,0,1,5.84,5.84Z"/></g></g></svg>