<svg xmlns="http://www.w3.org/2000/svg" viewBox="0 0 121.09 87"><defs><style>.cls-1{fill:none;}.cls-2{fill:#2891cf;}</style></defs><title>source_btn_3</title><g id="Layer_2" data-name="Layer 2"><g id="Layer_1-2" data-name="Layer 1"><rect class="cls-1" width="121.09" height="87" rx="9.47"/><rect class="cls-2" x="23.77" y="52.33" width="34.2" height="25.01" rx="7.84"/><rect class="cls-2" x="63.12" y="52.33" width="34.2" height="25.01" rx="7.84"/><path class="cls-2" d="M69.55,9.67H51a7.85,7.85,0,0,0-7.85,7.84v9.32A7.86,7.86,0,0,0,51,34.68h4.75v6.93h3V34.68h3v6.93h3V34.68h4.76a7.86,7.86,0,0,0,7.85-7.85V17.51A7.85,7.85,0,0,0,69.55,9.67Z"/><polygon class="cls-2" points="81.72 51.49 78.72 51.49 78.72 46.96 42.37 46.96 42.37 51.49 39.37 51.49 39.37 43.96 81.72 43.96 81.72 51.49"/></g></g></svg>