<svg xmlns="http://www.w3.org/2000/svg" viewBox="0 0 121.09 87"><defs><style>.cls-1{fill:#2791d0;}</style></defs><title>source_btn_active_1</title><g id="Layer_2" data-name="Layer 2"><g id="Layer_1-2" data-name="Layer 1"><path class="cls-1" d="M111.62,0H9.47A9.5,9.5,0,0,0,0,9.47V77.53A9.5,9.5,0,0,0,9.47,87H111.62a9.5,9.5,0,0,0,9.47-9.47V9.47A9.5,9.5,0,0,0,111.62,0ZM43.19,17.51A7.85,7.85,0,0,1,51,9.67H69.55a7.85,7.85,0,0,1,7.85,7.84v9.32a7.86,7.86,0,0,1-7.85,7.85H64.79v6.93h-3V34.68h-3v6.93h-3V34.68H51a7.86,7.86,0,0,1-7.85-7.85ZM39.37,44H81.72v7.53h-3V47H42.37v4.53h-3ZM58,69.5a7.85,7.85,0,0,1-7.84,7.84H31.61a7.85,7.85,0,0,1-7.84-7.84V60.17a7.85,7.85,0,0,1,7.84-7.84H50.13A7.85,7.85,0,0,1,58,60.17Zm39.35,0a7.85,7.85,0,0,1-7.84,7.84H71a7.85,7.85,0,0,1-7.84-7.84V60.17A7.85,7.85,0,0,1,71,52.33H89.48a7.85,7.85,0,0,1,7.84,7.84Z"/></g></g></svg>